<?xml version="1.0" encoding="UTF-8"?>
<svg width="62px" height="77px" viewBox="0 0 62 77" version="1.1" xmlns="http://www.w3.org/2000/svg" xmlns:xlink="http://www.w3.org/1999/xlink">
    <!-- Generator: Sketch 47.1 (45422) - http://www.bohemiancoding.com/sketch -->
    <title>Untitled</title>
    <desc>Created with Sketch.</desc>
    <defs></defs>
    <g id="Page-1" stroke="none" stroke-width="1" fill="none" fill-rule="evenodd">
        <path d="M60.92,1.93408 C60.92,1.93408 52.21664,11.1648 52.41792,15.9976 C52.62944,21.07312 50.12064,26.3784 37.93168,24.77392 C31.1528,21.05248 25.40928,18.1128 21.59968,12.532 C17.6736,6.78096 29.80912,4.53472 32.64464,5.95232 C35.48048,7.36992 34.97088,9.44176 34.97088,9.44176 M6.24816,21.93088 C6.24816,21.93088 21.78,32.81024 28.75488,32.20928 C33.9376,31.76288 36.95136,23.88016 36.95136,23.88016 M15.9952,43.55136 C17.41296,43.37424 27.33696,37.52592 29.10928,36.46272 C30.8816,35.39936 28.75472,32.20928 28.75472,32.20928 M35.9656,75.24176 L40.5224,71.08816 C43.7472,67.2816 40.45488,62.53536 36.0928,64.21792 L32.22176,67.38736 L40.44352,60.65616 C43.90592,58.02944 40.17376,51.28048 34.70128,54.84032 L27.19904,60.19712 C27.19904,60.19712 47.52016,45.83344 52.32464,41.60192 C55.74672,38.588 52.048,32.23344 45.96784,35.61232 C42.432,37.57744 19.32144,52.16064 17.05856,50.81728 C6.94992,44.86464 1.24,52.24 1.24,52.24" id="Shape" stroke="#000000" stroke-width="1.92"></path>
    </g>
</svg>